<svg height="256px" width="256px" version="1.1" id="_x32_" xmlns="http://www.w3.org/2000/svg" xmlns:xlink="http://www.w3.org/1999/xlink" viewBox="0 0 512.00 512.00" xml:space="preserve" fill="#ff0000" stroke="#ff0000"><g id="SVGRepo_bgCarrier" stroke-width="0"></g><g id="SVGRepo_tracerCarrier" stroke-linecap="round" stroke-linejoin="round" stroke="#CCCCCC" stroke-width="1.024"></g><g id="SVGRepo_iconCarrier"> <style type="text/css"> .st0{fill:#000000;} </style> <g> <path class="st0" d="M256.001,0h-0.002c0,0-211.205,134.961-211.205,300.793c0,58.324,23.64,111.125,61.859,149.346 c26.277,26.277,59.445,45.662,96.562,55.212c16.871,4.341,34.559,6.65,52.783,6.65h0.002c18.225,0,35.912-2.308,52.783-6.65 c37.115-9.55,70.283-28.934,96.561-55.212c38.22-38.221,61.861-91.022,61.861-149.346C467.206,134.961,256.001,0,256.001,0z M395.708,353.274c-13-2.578-21.449-15.207-18.871-28.211c1.574-7.922,2.371-16.086,2.371-24.27c0-17.207-4.262-35.82-12.66-55.32 c-7.769-18.02-19.117-36.934-33.73-56.215c-5.508-7.27-11.547-14.672-17.941-22c-8.715-9.988-7.684-25.149,2.301-33.864 c10-8.711,25.156-7.676,33.863,2.301c7.117,8.156,13.859,16.422,20.031,24.57c16.949,22.363,30.258,44.637,39.555,66.211 c11.004,25.535,16.582,50.539,16.582,74.316c0,11.313-1.106,22.621-3.285,33.614c-2.27,11.422-12.297,19.332-23.516,19.332 C398.856,353.738,397.286,353.59,395.708,353.274z"></path> </g> </g></svg>